<?xml version="1.0" encoding="UTF-8" standalone="no"?>
<!DOCTYPE svg PUBLIC "-//W3C//DTD SVG 1.1//EN" "http://www.w3.org/Graphics/SVG/1.1/DTD/svg11.dtd">
<!-- Created with Vectornator (http://vectornator.io/) -->
<svg height="100%" stroke-miterlimit="10" style="fill-rule:nonzero;clip-rule:evenodd;stroke-linecap:round;stroke-linejoin:round;" version="1.1" viewBox="0 0 1620 2160" width="100%" xml:space="preserve" xmlns="http://www.w3.org/2000/svg" xmlns:vectornator="http://vectornator.io" xmlns:xlink="http://www.w3.org/1999/xlink">
<defs/>
<g id="Layer-1" vectornator:layerName="Layer 1">
<path d="M894.24 533.52C889.2 534.24 882.9 536.76 875.34 541.08C867.78 545.4 861.84 548.28 857.52 549.72C853.2 551.16 846.18 552.96 836.46 555.12C826.74 557.28 816.3 558.36 805.14 558.36C793.98 558.36 783.36 556.56 773.28 552.96C763.2 549.36 757.44 547.92 756 548.64C754.56 549.36 753.66 551.34 753.3 554.58C752.94 557.82 757.26 563.22 766.26 570.78C770.76 574.56 775.26 578.34 779.76 582.12C777.6 578.34 775.44 574.56 773.28 570.78C768.96 563.22 765.36 558.18 762.48 555.66C761.04 554.4 759.6 553.14 758.16 551.88C758.88 551.88 759.6 551.88 760.32 551.88C761.76 551.88 764.1 553.68 767.34 557.28C770.58 560.88 774.36 566.46 778.68 574.02C783 581.58 786.96 590.58 790.56 601.02C794.16 611.46 797.22 623.34 799.74 636.66C802.26 649.98 803.7 666.36 804.06 685.8C804.42 705.24 800.1 741.06 791.1 793.26C782.1 845.46 777.42 878.4 777.06 892.08C776.7 905.76 778.86 921.78 783.54 940.14C788.22 958.5 793.26 972.36 798.66 981.72C801.36 986.4 804.06 991.08 806.76 995.76C802.98 996.48 799.2 997.2 795.42 997.92C787.86 999.36 780.66 1002.06 773.82 1006.02C766.98 1009.98 760.5 1015.74 754.38 1023.3C748.26 1030.86 743.94 1037.7 741.42 1043.82C738.9 1049.94 737.64 1053.9 737.64 1055.7C737.64 1056.6 737.64 1057.5 737.64 1058.4C735.3 1056.6 732.96 1054.8 730.62 1053C725.94 1049.4 721.26 1046.52 716.58 1044.36C711.9 1042.2 701.82 1039.32 686.34 1035.72C670.86 1032.12 653.22 1030.86 633.42 1031.94C613.62 1033.02 583.2 1037.34 542.16 1044.9C501.12 1052.46 469.26 1056.6 446.58 1057.32C423.9 1058.04 407.16 1057.68 396.36 1056.24C385.56 1054.8 373.68 1052.28 360.72 1048.68C354.24 1046.88 347.76 1045.08 341.28 1043.28C342.54 1042.92 343.8 1042.56 345.06 1042.2C347.58 1041.48 354.42 1042.74 365.58 1045.98C376.74 1049.22 386.1 1051.02 393.66 1051.38C397.44 1051.56 401.22 1051.74 405 1051.92C400.5 1051.2 396 1050.48 391.5 1049.76C382.5 1048.32 372.6 1045.98 361.8 1042.74C351 1039.5 342.9 1036.8 337.5 1034.64C332.1 1032.48 327.78 1029.78 324.54 1026.54C322.92 1024.92 321.3 1023.3 319.68 1021.68C323.64 1020.96 327.6 1020.24 331.56 1019.52C339.48 1018.08 346.86 1015.56 353.7 1011.96C360.54 1008.36 367.56 1003.68 374.76 997.92C381.96 992.16 390.96 982.62 401.76 969.3C412.56 955.98 421.38 942.66 428.22 929.34C435.06 916.02 439.92 905.22 442.8 896.94C445.68 888.66 448.2 879.66 450.36 869.94C452.52 860.22 453.6 846.72 453.6 829.44C453.6 812.16 452.7 800.28 450.9 793.8C449.1 787.32 446.76 781.38 443.88 775.98C441 770.58 437.58 765.9 433.62 761.94C429.66 757.98 425.34 754.74 420.66 752.22C418.32 750.96 415.98 749.7 413.64 748.44C417.78 746.82 421.92 745.2 426.06 743.58C434.34 740.34 441.9 738.9 448.74 739.26C452.16 739.44 455.58 739.62 459 739.8C456.66 738.72 454.32 737.64 451.98 736.56C447.3 734.4 444.6 732.6 443.88 731.16C443.52 730.44 443.16 729.72 442.8 729C449.82 732.6 456.84 736.2 463.86 739.8C477.9 747 490.14 754.74 500.58 763.02C511.02 771.3 525.78 786.6 544.86 808.92C563.94 831.24 574.38 844.2 576.18 847.8C577.98 851.4 583.56 859.32 592.92 871.56C597.6 877.68 602.28 883.8 606.96 889.92C606.6 890.1 606.24 890.28 605.88 890.46C605.16 890.82 604.98 891.72 605.34 893.16C605.7 894.6 613.08 903.6 627.48 920.16C641.88 936.72 657 950.76 672.84 962.28C688.68 973.8 707.22 985.32 728.46 996.84C739.08 1002.6 749.7 1008.36 760.32 1014.12C760.32 1012.86 760.32 1011.6 760.32 1010.34C760.32 1009.08 760.32 1007.82 760.32 1006.56C759.78 1006.56 759.24 1006.56 758.7 1006.56C757.62 1006.56 756.36 1003.5 754.92 997.38C753.48 991.26 751.86 986.4 750.06 982.8C748.26 979.2 739.44 966.24 723.6 943.92C707.76 921.6 692.46 903.6 677.7 889.92C662.94 876.24 640.26 858.6 609.66 837C579.06 815.4 556.92 799.02 543.24 787.86C529.56 776.7 518.76 766.44 510.84 757.08C502.92 747.72 496.98 739.8 493.02 733.32C489.06 726.84 484.56 717.84 479.52 706.32C474.48 694.8 471.96 687.42 471.96 684.18C471.96 680.94 472.68 679.14 474.12 678.78C474.84 678.6 475.56 678.42 476.28 678.24C475.92 679.32 475.56 680.4 475.2 681.48C474.48 683.64 474.66 686.88 475.74 691.2C476.82 695.52 480.06 702.9 485.46 713.34C490.86 723.78 495.9 732.42 500.58 739.26C505.26 746.1 510.84 752.76 517.32 759.24C520.56 762.48 523.8 765.72 527.04 768.96C524.16 765.36 521.28 761.76 518.4 758.16C512.64 750.96 508.5 744.66 505.98 739.26C503.46 733.86 500.94 727.74 498.42 720.9C495.9 714.06 494.1 706.86 493.02 699.3C491.94 691.74 489.24 687.06 484.92 685.26C480.6 683.46 478.44 682.02 478.44 680.94C478.44 680.4 478.44 679.86 478.44 679.32C485.82 682.2 493.2 685.08 500.58 687.96C515.34 693.72 529.56 697.32 543.24 698.76C556.92 700.2 570.42 700.2 583.74 698.76C597.06 697.32 609.84 694.62 622.08 690.66C634.32 686.7 645.12 682.2 654.48 677.16C663.84 672.12 671.94 667.08 678.78 662.04C685.62 657 693.72 649.62 703.08 639.9C712.44 630.18 719.82 621.36 725.22 613.44C730.62 605.52 734.94 598.14 738.18 591.3C741.42 584.46 744.66 576 747.9 565.92C751.14 555.84 752.4 549.9 751.68 548.1C750.96 546.3 749.52 545.4 747.36 545.4C745.2 545.4 743.4 544.86 741.96 543.78C740.52 542.7 736.56 541.98 730.08 541.62C723.6 541.26 713.88 542.16 700.92 544.32C687.96 546.48 670.86 547.74 649.62 548.1C628.38 548.46 613.08 549.9 603.72 552.42C594.36 554.94 585.54 558.54 577.26 563.22C568.98 567.9 562.14 572.58 556.74 577.26C551.34 581.94 545.22 588.6 538.38 597.24C531.54 605.88 525.06 613.26 518.94 619.38C512.82 625.5 505.98 631.62 498.42 637.74C490.86 643.86 484.2 650.88 478.44 658.8C472.68 666.72 468.54 674.1 466.02 680.94C463.5 687.78 460.44 694.08 456.84 699.84C453.24 705.6 443.7 713.7 428.22 724.14C412.74 734.58 400.14 744.66 390.42 754.38C380.7 764.1 373.14 772.38 367.74 779.22C362.34 786.06 353.52 795.24 341.28 806.76C329.04 818.28 320.4 827.46 315.36 834.3C310.32 841.14 306.36 848.16 303.48 855.36C300.6 862.56 298.62 869.04 297.54 874.8C296.46 880.56 296.1 896.94 296.46 923.94C296.82 950.94 296.64 964.62 295.92 964.98C295.2 965.34 294.3 967.86 293.22 972.54C292.14 977.22 291.42 983.34 291.06 990.9C290.7 998.46 291.06 1006.2 292.14 1014.12C293.22 1022.04 295.38 1031.4 298.62 1042.2C301.86 1053 303.48 1062.54 303.48 1070.82C303.48 1079.1 301.68 1089.18 298.08 1101.06C294.48 1112.94 292.5 1121.04 292.14 1125.36C291.78 1129.68 291.78 1144.8 292.14 1170.72C292.5 1196.64 292.32 1216.8 291.6 1231.2C290.88 1245.6 291.06 1256.22 292.14 1263.06C293.22 1269.9 294.84 1276.2 297 1281.96C299.16 1287.72 302.4 1294.02 306.72 1300.86C311.04 1307.7 321.66 1319.04 338.58 1334.88C355.5 1350.72 367.92 1364.22 375.84 1375.38C383.76 1386.54 389.7 1394.1 393.66 1398.06C397.62 1402.02 401.04 1405.08 403.92 1407.24C406.8 1409.4 415.44 1413.72 429.84 1420.2C444.24 1426.68 453.24 1432.26 456.84 1436.94C460.44 1441.62 464.04 1447.92 467.64 1455.84C471.24 1463.76 475.56 1470.6 480.6 1476.36C485.64 1482.12 491.4 1486.98 497.88 1490.94C504.36 1494.9 507.78 1497.42 508.14 1498.5C508.5 1499.58 510.3 1501.2 513.54 1503.36C516.78 1505.52 527.76 1516.86 546.48 1537.38C565.2 1557.9 577.98 1570.32 584.82 1574.64C591.66 1578.96 597.78 1582.2 603.18 1584.36C608.58 1586.52 615.6 1588.5 624.24 1590.3C632.88 1592.1 648.18 1593 670.14 1593C692.1 1593 711 1594.44 726.84 1597.32C742.68 1600.2 752.76 1600.92 757.08 1599.48C761.4 1598.04 768.06 1594.8 777.06 1589.76C786.06 1584.72 793.62 1581.48 799.74 1580.04C805.86 1578.6 814.32 1578.24 825.12 1578.96C835.92 1579.68 847.26 1582.74 859.14 1588.14C871.02 1593.54 880.02 1596.24 886.14 1596.24C892.26 1596.24 899.64 1594.8 908.28 1591.92C916.92 1589.04 935.1 1587.6 962.82 1587.6C990.54 1587.6 1008 1586.88 1015.2 1585.44C1022.4 1584 1030.14 1581.48 1038.42 1577.88C1046.7 1574.28 1054.8 1569.42 1062.72 1563.3C1070.64 1557.18 1080.9 1546.56 1093.5 1531.44C1106.1 1516.32 1119.6 1501.92 1134 1488.24C1148.4 1474.56 1159.02 1460.88 1165.86 1447.2C1172.7 1433.52 1177.92 1424.88 1181.52 1421.28C1185.12 1417.68 1188.54 1415.16 1191.78 1413.72C1193.4 1413 1195.02 1412.28 1196.64 1411.56C1196.46 1411.2 1196.28 1410.84 1196.1 1410.48C1195.74 1409.76 1192.68 1408.68 1186.92 1407.24C1181.16 1405.8 1172.7 1402.02 1161.54 1395.9C1150.38 1389.78 1138.68 1381.68 1126.44 1371.6C1114.2 1361.52 1103.58 1350.9 1094.58 1339.74C1085.58 1328.58 1074.96 1314.18 1062.72 1296.54C1050.48 1278.9 1032.3 1255.5 1008.18 1226.34C984.06 1197.18 963.72 1176.66 947.16 1164.78C930.6 1152.9 918 1145.16 909.36 1141.56C900.72 1137.96 894.06 1134.54 889.38 1131.3C884.7 1128.06 881.46 1126.44 879.66 1126.44C877.86 1126.44 876.06 1126.98 874.26 1128.06C872.46 1129.14 871.56 1130.76 871.56 1132.92C871.56 1135.08 872.64 1139.04 874.8 1144.8C876.96 1150.56 884.7 1163.16 898.02 1182.6C911.34 1202.04 926.46 1220.22 943.38 1237.14C960.3 1254.06 975.06 1267.02 987.66 1276.02C1000.26 1285.02 1008.9 1291.68 1013.58 1296C1018.26 1300.32 1031.04 1309.68 1051.92 1324.08C1072.8 1338.48 1088.46 1350.54 1098.9 1360.26C1109.34 1369.98 1117.8 1379.16 1124.28 1387.8C1130.76 1396.44 1136.52 1405.26 1141.56 1414.26C1146.6 1423.26 1150.2 1430.82 1152.36 1436.94C1154.52 1443.06 1155.6 1447.92 1155.6 1451.52C1155.6 1455.12 1154.88 1457.1 1153.44 1457.46C1152.72 1457.64 1152 1457.82 1151.28 1458C1151.82 1457.46 1152.36 1456.92 1152.9 1456.38C1153.98 1455.3 1153.98 1452.24 1152.9 1447.2C1151.82 1442.16 1146.96 1431.9 1138.32 1416.42C1129.68 1400.94 1120.5 1387.8 1110.78 1377C1101.06 1366.2 1093.14 1358.46 1087.02 1353.78C1083.96 1351.44 1080.9 1349.1 1077.84 1346.76C1083.96 1352.88 1090.08 1359 1096.2 1365.12C1108.44 1377.36 1117.8 1388.52 1124.28 1398.6C1130.76 1408.68 1135.62 1417.5 1138.86 1425.06C1140.48 1428.84 1142.1 1432.62 1143.72 1436.4C1142.64 1435.5 1141.56 1434.6 1140.48 1433.7C1138.32 1431.9 1136.7 1431.36 1135.62 1432.08C1134.54 1432.8 1129.5 1430.64 1120.5 1425.6C1111.5 1420.56 1102.5 1417.32 1093.5 1415.88C1084.5 1414.44 1074.6 1413.72 1063.8 1413.72C1053 1413.72 1043.64 1414.26 1035.72 1415.34C1027.8 1416.42 1018.26 1418.4 1007.1 1421.28C995.94 1424.16 982.08 1429.2 965.52 1436.4C948.96 1443.6 935.64 1450.44 925.56 1456.92C915.48 1463.4 907.92 1468.8 902.88 1473.12C897.84 1477.44 892.08 1483.02 885.6 1489.86C879.12 1496.7 874.26 1502.46 871.02 1507.14C867.78 1511.82 864.36 1518.84 860.76 1528.2C857.16 1537.56 855.36 1545.12 855.36 1550.88C855.36 1553.76 855.36 1556.64 855.36 1559.52C854.64 1558.8 853.92 1558.08 853.2 1557.36C851.76 1555.92 849.24 1550.88 845.64 1542.24C843.84 1537.92 842.04 1533.6 840.24 1529.28C840.24 1531.08 840.24 1532.88 840.24 1534.68C840.24 1536.48 840.24 1538.28 840.24 1540.08C839.7 1539.36 839.16 1538.64 838.62 1537.92C837.54 1536.48 834.84 1525.68 830.52 1505.52C826.2 1485.36 823.86 1464.12 823.5 1441.8C823.14 1419.48 824.4 1401.12 827.28 1386.72C830.16 1372.32 831.78 1361.7 832.14 1354.86C832.5 1348.02 834.66 1335.24 838.62 1316.52C842.58 1297.8 845.46 1280.88 847.26 1265.76C849.06 1250.64 849.96 1237.32 849.96 1225.8C849.96 1214.28 848.88 1203.84 846.72 1194.48C844.56 1185.12 841.5 1176.3 837.54 1168.02C833.58 1159.74 830.16 1154.88 827.28 1153.44C824.4 1152 822.78 1150.74 822.42 1149.66C822.24 1149.12 822.06 1148.58 821.88 1148.04C826.2 1146.6 830.52 1145.16 834.84 1143.72C839.16 1142.28 843.48 1140.84 847.8 1139.4C848.16 1141.2 848.52 1143 848.88 1144.8C849.6 1148.4 850.5 1150.38 851.58 1150.74C852.12 1150.92 852.66 1151.1 853.2 1151.28C852.66 1149.12 852.12 1146.96 851.58 1144.8C850.5 1140.48 852.3 1136.7 856.98 1133.46C861.66 1130.22 866.52 1125.36 871.56 1118.88C876.6 1112.4 880.2 1106.64 882.36 1101.6C884.52 1096.56 886.14 1089.72 887.22 1081.08C888.3 1072.44 887.76 1063.98 885.6 1055.7C883.44 1047.42 882.54 1042.02 882.9 1039.5C883.08 1038.24 883.26 1036.98 883.44 1035.72C882.9 1035.72 882.36 1035.72 881.82 1035.72C880.74 1035.72 879.48 1034.28 878.04 1031.4C876.6 1028.52 872.46 1023.84 865.62 1017.36C858.78 1010.88 851.22 1005.84 842.94 1002.24C834.66 998.64 828.54 996.66 824.58 996.3C822.6 996.12 820.62 995.94 818.64 995.76C820.62 994.14 822.6 992.52 824.58 990.9C828.54 987.66 832.14 982.8 835.38 976.32C838.62 969.84 842.04 958.5 845.64 942.3C849.24 926.1 850.32 906.66 848.88 883.98C847.44 861.3 845.82 846.54 844.02 839.7C842.22 832.86 838.62 812.34 833.22 778.14C827.82 743.94 824.76 718.02 824.04 700.38C823.32 682.74 823.5 669.06 824.58 659.34C825.66 649.62 828.18 636.84 832.14 621C836.1 605.16 840.42 592.38 845.1 582.66C849.78 572.94 853.38 566.28 855.9 562.68C858.42 559.08 861.3 556.02 864.54 553.5C867.78 550.98 869.76 549.9 870.48 550.26C870.84 550.44 871.2 550.62 871.56 550.8C869.4 552.78 867.24 554.76 865.08 556.74C860.76 560.7 856.26 567.18 851.58 576.18C846.9 585.18 842.4 597.06 838.08 611.82C833.76 626.58 830.88 639.36 829.44 650.16C828 660.96 827.64 676.08 828.36 695.52C828.72 705.24 829.08 714.96 829.44 724.68C830.52 708.12 831.6 691.56 832.68 675C834.84 641.88 838.98 619.56 845.1 608.04C851.22 596.52 856.08 588.78 859.68 584.82C863.28 580.86 867.06 577.62 871.02 575.1C874.98 572.58 876.06 568.62 874.26 563.22C872.46 557.82 871.74 554.4 872.1 552.96C872.28 552.24 872.46 551.52 872.64 550.8C873 550.98 873.36 551.16 873.72 551.34C874.44 551.7 875.52 554.94 876.96 561.06C878.4 567.18 880.02 570.24 881.82 570.24C883.62 570.24 884.88 572.76 885.6 577.8C886.32 582.84 888.3 588.96 891.54 596.16C894.78 603.36 899.64 611.28 906.12 619.92C912.6 628.56 921.24 637.56 932.04 646.92C942.84 656.28 954.9 664.56 968.22 671.76C981.54 678.96 995.4 684.54 1009.8 688.5C1024.2 692.46 1038.06 694.8 1051.38 695.52C1064.7 696.24 1078.02 695.52 1091.34 693.36C1104.66 691.2 1118.7 687.06 1133.46 680.94C1140.84 677.88 1148.22 674.82 1155.6 671.76C1155.24 672.3 1154.88 672.84 1154.52 673.38C1153.8 674.46 1148.94 677.16 1139.94 681.48C1130.94 685.8 1120.14 689.58 1107.54 692.82C1094.94 696.06 1080.9 697.86 1065.42 698.22C1049.94 698.58 1038.06 698.04 1029.78 696.6C1025.64 695.88 1021.5 695.16 1017.36 694.44C1021.86 695.88 1026.36 697.32 1030.86 698.76C1039.86 701.64 1052.28 703.44 1068.12 704.16C1083.96 704.88 1096.74 703.98 1106.46 701.46C1116.18 698.94 1124.64 694.98 1131.84 689.58C1135.44 686.88 1139.04 684.18 1142.64 681.48C1142.82 683.82 1143 686.16 1143.18 688.5C1143.54 693.18 1142.82 699.66 1141.02 707.94C1140.12 712.08 1139.22 716.22 1138.32 720.36C1140.66 715.86 1143 711.36 1145.34 706.86C1150.02 697.86 1152.72 691.38 1153.44 687.42C1154.16 683.46 1153.98 680.94 1152.9 679.86C1152.36 679.32 1151.82 678.78 1151.28 678.24C1152 678.42 1152.72 678.6 1153.44 678.78C1154.88 679.14 1155.24 682.56 1154.52 689.04C1153.8 695.52 1150.2 704.88 1143.72 717.12C1137.24 729.36 1131.3 739.26 1125.9 746.82C1120.5 754.38 1114.56 761.58 1108.08 768.42C1101.6 775.26 1078.74 792.72 1039.5 820.8C1000.26 848.88 972.9 869.76 957.42 883.44C941.94 897.12 930.06 909 921.78 919.08C913.5 929.16 905.22 940.32 896.94 952.56C888.66 964.8 882.9 974.16 879.66 980.64C876.42 987.12 873.9 993.42 872.1 999.54C871.2 1002.6 870.3 1005.66 869.4 1008.72C871.92 1008.72 874.44 1008.72 876.96 1008.72C882 1008.72 886.86 1007.82 891.54 1006.02C896.22 1004.22 904.68 999.36 916.92 991.44C929.16 983.52 938.88 976.32 946.08 969.84C953.28 963.36 960.12 957.96 966.6 953.64C973.08 949.32 980.82 942.84 989.82 934.2C998.82 925.56 1006.2 917.64 1011.96 910.44C1017.72 903.24 1032.12 883.26 1055.16 850.5C1078.2 817.74 1094.04 796.5 1102.68 786.78C1111.32 777.06 1118.34 769.86 1123.74 765.18C1129.14 760.5 1136.34 755.28 1145.34 749.52C1154.34 743.76 1163.34 738.72 1172.34 734.4C1181.34 730.08 1188 727.56 1192.32 726.84C1196.64 726.12 1199.52 725.94 1200.96 726.3C1202.4 726.66 1203.3 727.56 1203.66 729C1203.84 729.72 1204.02 730.44 1204.2 731.16C1203.12 730.62 1202.04 730.08 1200.96 729.54C1198.8 728.46 1195.2 728.64 1190.16 730.08C1185.12 731.52 1177.2 735.12 1166.4 740.88C1155.6 746.64 1146.6 752.04 1139.4 757.08C1132.2 762.12 1124.1 769.14 1115.1 778.14C1106.1 787.14 1099.26 794.88 1094.58 801.36C1092.24 804.6 1089.9 807.84 1087.56 811.08C1092.24 805.86 1096.92 800.64 1101.6 795.42C1110.96 784.98 1119.6 776.34 1127.52 769.5C1135.44 762.66 1145.88 756.36 1158.84 750.6C1171.8 744.84 1184.04 741.6 1195.56 740.88C1201.32 740.52 1207.08 740.16 1212.84 739.8C1212.12 740.34 1211.4 740.88 1210.68 741.42C1209.24 742.5 1208.52 743.58 1208.52 744.66C1208.52 745.74 1206.36 749.34 1202.04 755.46C1197.72 761.58 1194.48 767.16 1192.32 772.2C1190.16 777.24 1188 783 1185.84 789.48C1183.68 795.96 1181.88 803.34 1180.44 811.62C1179 819.9 1178.28 828.72 1178.28 838.08C1178.28 847.44 1179 856.8 1180.44 866.16C1181.88 875.52 1185.12 887.76 1190.16 902.88C1195.2 918 1199.88 929.7 1204.2 937.98C1208.52 946.26 1213.38 954.36 1218.78 962.28C1224.18 970.2 1230.66 977.94 1238.22 985.5C1245.78 993.06 1251.9 998.46 1256.58 1001.7C1261.26 1004.94 1267.74 1008.18 1276.02 1011.42C1284.3 1014.66 1292.22 1016.1 1299.78 1015.74C1303.56 1015.56 1307.34 1015.38 1311.12 1015.2C1309.14 1017 1307.16 1018.8 1305.18 1020.6C1303.2 1022.4 1301.22 1024.2 1299.24 1026C1300.14 1026.54 1301.04 1027.08 1301.94 1027.62C1303.74 1028.7 1306.08 1028.88 1308.96 1028.16C1311.84 1027.44 1316.34 1024.56 1322.46 1019.52C1325.52 1017 1328.58 1014.48 1331.64 1011.96C1330.38 1013.76 1329.12 1015.56 1327.86 1017.36C1325.34 1020.96 1322.1 1024.02 1318.14 1026.54C1314.18 1029.06 1312.38 1030.68 1312.74 1031.4C1312.92 1031.76 1313.1 1032.12 1313.28 1032.48C1312.2 1032.48 1311.12 1032.48 1310.04 1032.48C1307.88 1032.48 1303.92 1034.1 1298.16 1037.34C1292.4 1040.58 1283.4 1044 1271.16 1047.6C1258.92 1051.2 1246.68 1053.9 1234.44 1055.7C1222.2 1057.5 1200.24 1057.86 1168.56 1056.78C1136.88 1055.7 1117.44 1054.44 1110.24 1053C1103.04 1051.56 1099.08 1050.3 1098.36 1049.22C1097.64 1048.14 1095.12 1047.6 1090.8 1047.6C1086.48 1047.6 1079.82 1046.34 1070.82 1043.82C1061.82 1041.3 1050.3 1038.96 1036.26 1036.8C1022.22 1034.64 1003.5 1033.74 980.1 1034.1C956.7 1034.46 942.12 1035.18 936.36 1036.26C930.6 1037.34 923.04 1039.86 913.68 1043.82C904.32 1047.78 898.2 1052.1 895.32 1056.78C892.44 1061.46 891.36 1065.96 892.08 1070.28C892.8 1074.6 894.96 1078.38 898.56 1081.62C902.16 1084.86 908.46 1088.28 917.46 1091.88C926.46 1095.48 939.42 1098.54 956.34 1101.06C973.26 1103.58 988.74 1104.48 1002.78 1103.76C1016.82 1103.04 1045.8 1098.72 1089.72 1090.8C1133.64 1082.88 1160.46 1078.56 1170.18 1077.84C1179.9 1077.12 1190.52 1076.94 1202.04 1077.3C1213.56 1077.66 1224.18 1078.56 1233.9 1080C1243.62 1081.44 1254.42 1083.78 1266.3 1087.02C1278.18 1090.26 1288.44 1093.86 1297.08 1097.82C1305.72 1101.78 1313.46 1106.46 1320.3 1111.86C1327.14 1117.26 1330.56 1120.68 1330.56 1122.12C1330.56 1122.84 1330.56 1123.56 1330.56 1124.28C1329.12 1122.66 1327.68 1121.04 1326.24 1119.42C1323.36 1116.18 1317.78 1112.22 1309.5 1107.54C1301.22 1102.86 1290.42 1098.36 1277.1 1094.04C1263.78 1089.72 1249.02 1086.48 1232.82 1084.32C1216.62 1082.16 1200.06 1081.44 1183.14 1082.16C1174.68 1082.52 1166.22 1082.88 1157.76 1083.24C1164.06 1083.42 1170.36 1083.6 1176.66 1083.78C1189.26 1084.14 1205.28 1085.4 1224.72 1087.56C1244.16 1089.72 1259.64 1093.14 1271.16 1097.82C1282.68 1102.5 1290.78 1107.54 1295.46 1112.94C1297.8 1115.64 1300.14 1118.34 1302.48 1121.04C1296.36 1123.38 1290.24 1125.72 1284.12 1128.06C1271.88 1132.74 1261.62 1138.14 1253.34 1144.26C1245.06 1150.38 1236.06 1158.84 1226.34 1169.64C1216.62 1180.44 1207.8 1192.5 1199.88 1205.82C1191.96 1219.14 1184.94 1234.8 1178.82 1252.8C1172.7 1270.8 1169.1 1287.54 1168.02 1303.02C1166.94 1318.5 1166.94 1329.66 1168.02 1336.5C1169.1 1343.34 1170.9 1350 1173.42 1356.48C1175.94 1362.96 1179.54 1369.08 1184.22 1374.84C1188.9 1380.6 1193.94 1384.74 1199.34 1387.26C1204.74 1389.78 1207.44 1391.4 1207.44 1392.12C1207.44 1392.84 1205.46 1393.74 1201.5 1394.82C1197.54 1395.9 1192.32 1396.44 1185.84 1396.44C1179.36 1396.44 1174.14 1395.9 1170.18 1394.82C1168.2 1394.28 1166.22 1393.74 1164.24 1393.2C1165.68 1394.28 1167.12 1395.36 1168.56 1396.44C1171.44 1398.6 1177.56 1401.12 1186.92 1404C1196.28 1406.88 1201.32 1407.78 1202.04 1406.7C1202.76 1405.62 1203.48 1405.26 1204.2 1405.62C1204.92 1405.98 1207.98 1404.54 1213.38 1401.3C1218.78 1398.06 1226.52 1390.32 1236.6 1378.08C1246.68 1365.84 1259.28 1352.34 1274.4 1337.58C1289.52 1322.82 1298.7 1313.1 1301.94 1308.42C1305.18 1303.74 1309.32 1295.64 1314.36 1284.12C1319.4 1272.6 1322.64 1263.6 1324.08 1257.12C1325.52 1250.64 1326.6 1238.58 1327.32 1220.94C1328.04 1203.3 1329.12 1187.28 1330.56 1172.88C1332 1158.48 1333.26 1150.56 1334.34 1149.12C1335.42 1147.68 1335.96 1143.54 1335.96 1136.7C1335.96 1129.86 1333.62 1120.86 1328.94 1109.7C1324.26 1098.54 1321.38 1087.56 1320.3 1076.76C1319.22 1065.96 1319.76 1055.88 1321.92 1046.52C1324.08 1037.16 1327.14 1028.34 1331.1 1020.06C1335.06 1011.78 1337.4 1004.94 1338.12 999.54C1338.84 994.14 1338.84 990.18 1338.12 987.66C1337.4 985.14 1337.04 968.76 1337.04 938.52C1337.04 908.28 1335.96 887.94 1333.8 877.5C1331.64 867.06 1328.22 856.44 1323.54 845.64C1318.86 834.84 1314.36 826.38 1310.04 820.26C1305.72 814.14 1290.96 798.66 1265.76 773.82C1240.56 748.98 1225.26 734.76 1219.86 731.16C1214.46 727.56 1207.62 723.96 1199.34 720.36C1191.06 716.76 1184.76 713.16 1180.44 709.56C1176.12 705.96 1172.16 701.28 1168.56 695.52C1164.96 689.76 1161.72 681.66 1158.84 671.22C1155.96 660.78 1153.26 653.58 1150.74 649.62C1148.22 645.66 1137.6 632.7 1118.88 610.74C1100.16 588.78 1087.56 574.74 1081.08 568.62C1074.6 562.5 1066.32 556.56 1056.24 550.8C1046.16 545.04 1036.44 540.9 1027.08 538.38C1017.72 535.86 998.64 534.6 969.84 534.6C941.04 534.6 922.5 534.24 914.22 533.52C905.94 532.8 899.28 532.8 894.24 533.52ZM747.9 575.1C746.1 581.22 743.22 588.24 739.26 596.16C735.3 604.08 731.34 610.92 727.38 616.68C723.42 622.44 717.12 630 708.48 639.36C699.84 648.72 690.12 657.36 679.32 665.28C668.52 673.2 657.72 679.68 646.92 684.72C636.12 689.76 623.34 694.08 608.58 697.68C593.82 701.28 580.86 703.26 569.7 703.62C558.54 703.98 546.3 703.08 532.98 700.92C526.32 699.84 519.66 698.76 513 697.68C518.04 698.94 523.08 700.2 528.12 701.46C538.2 703.98 547.74 705.42 556.74 705.78C565.74 706.14 574.02 705.96 581.58 705.24C589.14 704.52 599.58 702.54 612.9 699.3C626.22 696.06 640.08 691.2 654.48 684.72C668.88 678.24 681.66 671.04 692.82 663.12C703.98 655.2 714.06 646.38 723.06 636.66C732.06 626.94 738.72 617.94 743.04 609.66C747.36 601.38 750.06 594.36 751.14 588.6C752.22 582.84 752.76 578.16 752.76 574.56C752.76 570.96 752.4 568.62 751.68 567.54C751.32 567 750.96 566.46 750.6 565.92C749.7 568.98 748.8 572.04 747.9 575.1ZM798.66 656.64C799.2 660.24 799.74 663.84 800.28 667.44C799.74 663.84 799.2 660.24 798.66 656.64C798.12 653.04 797.58 649.44 797.04 645.84C797.58 649.44 798.12 653.04 798.66 656.64ZM1191.24 765.72C1188.36 770.76 1186.38 775.26 1185.3 779.22C1184.76 781.2 1184.22 783.18 1183.68 785.16C1185.66 781.38 1187.64 777.6 1189.62 773.82C1193.58 766.26 1195.56 761.76 1195.56 760.32C1195.56 759.6 1195.56 758.88 1195.56 758.16C1194.12 760.68 1192.68 763.2 1191.24 765.72ZM922.86 821.34C907.38 856.26 896.76 881.82 891 898.02C885.24 914.22 878.58 929.7 871.02 944.46C863.46 959.22 859.14 968.4 858.06 972C857.52 973.8 856.98 975.6 856.44 977.4C860.76 969.84 865.08 962.28 869.4 954.72C878.04 939.6 887.76 917.82 898.56 889.38C909.36 860.94 919.98 835.02 930.42 811.62C940.86 788.22 946.08 775.26 946.08 772.74C946.08 771.48 946.08 770.22 946.08 768.96C938.34 786.42 930.6 803.88 922.86 821.34ZM714.42 813.78C728.46 841.5 740.16 868.5 749.52 894.78C758.88 921.06 764.1 938.16 765.18 946.08C766.26 954 767.7 959.76 769.5 963.36C770.4 965.16 771.3 966.96 772.2 968.76C770.76 961.02 769.32 953.28 767.88 945.54C765 930.06 760.86 914.58 755.46 899.1C750.06 883.62 743.04 866.16 734.4 846.72C725.76 827.28 716.76 810 707.4 794.88C702.72 787.32 698.04 779.76 693.36 772.2C700.38 786.06 707.4 799.92 714.42 813.78ZM566.46 800.82C569.52 803.16 572.58 805.5 575.64 807.84C572.58 805.5 569.52 803.16 566.46 800.82C563.4 798.48 560.34 796.14 557.28 793.8C560.34 796.14 563.4 798.48 566.46 800.82ZM1083.24 817.02C1082.52 818.28 1081.8 819.54 1081.08 820.8C1082.16 820.26 1083.24 819.72 1084.32 819.18C1086.48 818.1 1087.56 816.84 1087.56 815.4C1087.56 814.68 1087.56 813.96 1087.56 813.24C1087.2 813.24 1086.84 813.24 1086.48 813.24C1085.76 813.24 1084.68 814.5 1083.24 817.02ZM986.58 854.28C984.96 855.72 983.34 857.16 981.72 858.6C983.34 857.16 984.96 855.72 986.58 854.28C988.2 852.84 989.82 851.4 991.44 849.96C989.82 851.4 988.2 852.84 986.58 854.28ZM719.82 930.96C723.96 936.36 728.1 941.76 732.24 947.16C730.08 943.74 727.92 940.32 725.76 936.9C721.44 930.06 717.3 924.66 713.34 920.7C711.36 918.72 709.38 916.74 707.4 914.76C711.54 920.16 715.68 925.56 719.82 930.96ZM559.98 955.8C590.58 967.32 611.28 975.42 622.08 980.1C632.88 984.78 644.22 990.36 656.1 996.84C667.98 1003.32 679.86 1008.9 691.74 1013.58C697.68 1015.92 703.62 1018.26 709.56 1020.6C707.22 1018.98 704.88 1017.36 702.54 1015.74C697.86 1012.5 679.86 1003.5 648.54 988.74C617.22 973.98 588.96 962.1 563.76 953.1C538.56 944.1 523.98 939.42 520.02 939.06C518.04 938.88 516.06 938.7 514.08 938.52C529.38 944.28 544.68 950.04 559.98 955.8ZM1096.2 956.34C1087.56 961.74 1078.02 966.96 1067.58 972C1057.14 977.04 1051.2 979.56 1049.76 979.56C1048.32 979.56 1044.18 981.36 1037.34 984.96C1030.5 988.56 1016.28 994.68 994.68 1003.32C973.08 1011.96 955.26 1018.26 941.22 1022.22C927.18 1026.18 914.4 1029.06 902.88 1030.86C891.36 1032.66 885.6 1033.92 885.6 1034.64C885.6 1035 885.6 1035.36 885.6 1035.72C889.56 1035.36 893.52 1035 897.48 1034.64C905.4 1033.92 918 1031.4 935.28 1027.08C952.56 1022.76 972.36 1016.1 994.68 1007.1C1017 998.1 1032.66 991.26 1041.66 986.58C1050.66 981.9 1055.88 979.56 1057.32 979.56C1058.76 979.56 1067.76 975.06 1084.32 966.06C1100.88 957.06 1109.52 952.2 1110.24 951.48C1110.6 951.12 1110.96 950.76 1111.32 950.4C1110.96 950.04 1110.6 949.68 1110.24 949.32C1109.52 948.6 1104.84 950.94 1096.2 956.34ZM771.12 984.42C771.84 991.26 772.56 994.86 773.28 995.22C773.64 995.4 774 995.58 774.36 995.76C774.36 993.96 774.36 992.16 774.36 990.36C774.36 986.76 773.64 983.16 772.2 979.56C771.48 977.76 770.76 975.96 770.04 974.16C770.4 977.58 770.76 981 771.12 984.42ZM846.18 991.44C844.92 994.32 843.66 997.2 842.4 1000.08C844.02 997.92 845.64 995.76 847.26 993.6C850.5 989.28 851.76 986.4 851.04 984.96C850.68 984.24 850.32 983.52 849.96 982.8C848.7 985.68 847.44 988.56 846.18 991.44ZM295.92 1010.88C298.8 1013.4 301.68 1015.92 304.56 1018.44C310.32 1023.48 316.26 1027.44 322.38 1030.32C328.5 1033.2 332.1 1035.54 333.18 1037.34C333.72 1038.24 334.26 1039.14 334.8 1040.04C330.12 1037.52 325.44 1035 320.76 1032.48C311.4 1027.44 305.28 1023.66 302.4 1021.14C299.52 1018.62 297.72 1016.28 297 1014.12C296.64 1013.04 296.28 1011.96 295.92 1010.88ZM719.82 1031.4C726.66 1036.44 730.98 1039.14 732.78 1039.5C733.68 1039.68 734.58 1039.86 735.48 1040.04C733.68 1038.24 731.88 1036.44 730.08 1034.64C726.48 1031.04 722.16 1028.34 717.12 1026.54C714.6 1025.64 712.08 1024.74 709.56 1023.84C712.98 1026.36 716.4 1028.88 719.82 1031.4ZM1286.28 1035.72C1282.68 1038.24 1279.08 1040.76 1275.48 1043.28C1280.16 1041.48 1284.84 1039.68 1289.52 1037.88C1298.88 1034.28 1303.56 1031.94 1303.56 1030.86C1303.56 1029.78 1302.48 1029.06 1300.32 1028.7C1298.16 1028.34 1293.48 1030.68 1286.28 1035.72ZM735.48 1076.76C736.2 1076.76 736.74 1079.1 737.1 1083.78C737.46 1088.46 739.08 1094.22 741.96 1101.06C744.84 1107.9 748.8 1114.38 753.84 1120.5C758.88 1126.62 764.28 1131.66 770.04 1135.62C775.8 1139.58 780.84 1142.28 785.16 1143.72C789.48 1145.16 796.32 1146.24 805.68 1146.96C815.04 1147.68 819.72 1148.4 819.72 1149.12C819.72 1149.48 819.72 1149.84 819.72 1150.2C816.84 1150.02 813.96 1149.84 811.08 1149.66C805.32 1149.3 801.36 1149.84 799.2 1151.28C797.04 1152.72 794.34 1156.68 791.1 1163.16C787.86 1169.64 784.8 1178.28 781.92 1189.08C779.04 1199.88 777.42 1208.34 777.06 1214.46C776.7 1220.58 777.06 1232.46 778.14 1250.1C779.22 1267.74 783.18 1294.74 790.02 1331.1C796.86 1367.46 801 1393.02 802.44 1407.78C803.88 1422.54 804.6 1435.86 804.6 1447.74C804.6 1459.62 803.88 1471.5 802.44 1483.38C801 1495.26 799.02 1506.42 796.5 1516.86C793.98 1527.3 789.66 1538.82 783.54 1551.42C777.42 1564.02 771.66 1573.02 766.26 1578.42C763.56 1581.12 760.86 1583.82 758.16 1586.52C761.4 1582.02 764.64 1577.52 767.88 1573.02C774.36 1564.02 779.76 1554.3 784.08 1543.86C788.4 1533.42 792.18 1518.3 795.42 1498.5C797.04 1488.6 798.66 1478.7 800.28 1468.8C796.5 1480.68 792.72 1492.56 788.94 1504.44C781.38 1528.2 777.42 1541.7 777.06 1544.94C776.7 1548.18 775.44 1552.14 773.28 1556.82C772.2 1559.16 771.12 1561.5 770.04 1563.84C769.32 1560.42 768.6 1557 767.88 1553.58C766.44 1546.74 764.1 1539.9 760.86 1533.06C757.62 1526.22 752.94 1518.66 746.82 1510.38C740.7 1502.1 734.58 1494.9 728.46 1488.78C722.34 1482.66 713.16 1475.1 700.92 1466.1C688.68 1457.1 674.64 1448.82 658.8 1441.26C642.96 1433.7 627.3 1427.94 611.82 1423.98C596.34 1420.02 581.4 1417.86 567 1417.5C552.6 1417.14 542.16 1417.68 535.68 1419.12C529.2 1420.56 521.28 1423.8 511.92 1428.84C502.56 1433.88 496.08 1438.74 492.48 1443.42C490.68 1445.76 488.88 1448.1 487.08 1450.44C488.16 1444.14 489.24 1437.84 490.32 1431.54C492.48 1418.94 495 1410.3 497.88 1405.62C500.76 1400.94 502.02 1398.24 501.66 1397.52C501.48 1397.16 501.3 1396.8 501.12 1396.44C496.98 1403.82 492.84 1411.2 488.7 1418.58C480.42 1433.34 475.92 1443.24 475.2 1448.28C474.48 1453.32 474.48 1456.2 475.2 1456.92C475.56 1457.28 475.92 1457.64 476.28 1458C475.92 1458.18 475.56 1458.36 475.2 1458.54C474.48 1458.9 473.76 1458.54 473.04 1457.46C472.32 1456.38 472.32 1453.14 473.04 1447.74C473.76 1442.34 476.28 1435.14 480.6 1426.14C484.92 1417.14 491.94 1405.8 501.66 1392.12C511.38 1378.44 520.56 1367.64 529.2 1359.72C537.84 1351.8 561.96 1333.62 601.56 1305.18C641.16 1276.74 668.34 1255.32 683.1 1240.92C697.86 1226.52 710.28 1212.3 720.36 1198.26C730.44 1184.22 737.46 1173.24 741.42 1165.32C745.38 1157.4 748.62 1149.66 751.14 1142.1C753.66 1134.54 754.38 1130.04 753.3 1128.6C752.22 1127.16 750.06 1126.8 746.82 1127.52C743.58 1128.24 736.56 1131.3 725.76 1136.7C714.96 1142.1 700.92 1151.1 683.64 1163.7C666.36 1176.3 649.8 1191.42 633.96 1209.06C618.12 1226.7 604.98 1242.54 594.54 1256.58C584.1 1270.62 576 1282.32 570.24 1291.68C564.48 1301.04 555.48 1313.28 543.24 1328.4C531 1343.52 521.82 1354.14 515.7 1360.26C509.58 1366.38 501.48 1373.04 491.4 1380.24C481.32 1387.44 471.06 1393.74 460.62 1399.14C450.18 1404.54 441.54 1407.6 434.7 1408.32C431.28 1408.68 427.86 1409.04 424.44 1409.4C424.44 1408.68 424.44 1407.96 424.44 1407.24C424.44 1406.52 424.44 1405.8 424.44 1405.08C424.98 1405.62 425.52 1406.16 426.06 1406.7C427.14 1407.78 429.66 1407.96 433.62 1407.24C437.58 1406.52 444.6 1403.64 454.68 1398.6C459.72 1396.08 464.76 1393.56 469.8 1391.04C469.08 1390.86 468.36 1390.68 467.64 1390.5C466.2 1390.14 461.7 1391.22 454.14 1393.74C446.58 1396.26 440.1 1397.52 434.7 1397.52C429.3 1397.52 424.08 1396.62 419.04 1394.82C416.52 1393.92 414 1393.02 411.48 1392.12C413.64 1390.14 415.8 1388.16 417.96 1386.18C422.28 1382.22 426.42 1376.82 430.38 1369.98C434.34 1363.14 437.76 1353.96 440.64 1342.44C443.52 1330.92 445.14 1320.66 445.5 1311.66C445.86 1302.66 445.5 1292.94 444.42 1282.5C443.34 1272.06 441.9 1262.7 440.1 1254.42C438.3 1246.14 435.42 1236.42 431.46 1225.26C427.5 1214.1 422.46 1202.76 416.34 1191.24C410.22 1179.72 403.74 1169.64 396.9 1161C390.06 1152.36 384.3 1145.88 379.62 1141.56C374.94 1137.24 369.9 1133.28 364.5 1129.68C359.1 1126.08 353.7 1123.2 348.3 1121.04C342.9 1118.88 338.4 1117.44 334.8 1116.72C331.2 1116 327.06 1115.82 322.38 1116.18C320.04 1116.36 317.7 1116.54 315.36 1116.72C317.7 1114.38 320.04 1112.04 322.38 1109.7C324.72 1107.36 327.06 1105.02 329.4 1102.68C326.34 1104.12 323.28 1105.56 320.22 1107C314.1 1109.88 308.52 1113.66 303.48 1118.34C300.96 1120.68 298.44 1123.02 295.92 1125.36C296.46 1124.1 297 1122.84 297.54 1121.58C298.62 1119.06 300.6 1116.54 303.48 1114.02C306.36 1111.5 312.84 1107.54 322.92 1102.14C333 1096.74 343.08 1092.24 353.16 1088.64C363.24 1085.04 372.24 1082.52 380.16 1081.08C388.08 1079.64 403.56 1078.74 426.6 1078.38C449.64 1078.02 465.66 1078.56 474.66 1080C483.66 1081.44 490.14 1081.98 494.1 1081.62C498.06 1081.26 505.44 1081.62 516.24 1082.7C527.04 1083.78 540.18 1086.12 555.66 1089.72C571.14 1093.32 592.38 1096.02 619.38 1097.82C646.38 1099.62 666.18 1099.44 678.78 1097.28C691.38 1095.12 701.64 1092.42 709.56 1089.18C717.48 1085.94 722.34 1084.68 724.14 1085.4C725.94 1086.12 728.1 1084.86 730.62 1081.62C733.14 1078.38 734.76 1076.76 735.48 1076.76ZM894.24 1101.6C894.24 1102.32 895.86 1103.4 899.1 1104.84C900.72 1105.56 902.34 1106.28 903.96 1107C902.34 1105.92 900.72 1104.84 899.1 1103.76C897.48 1102.68 895.86 1101.6 894.24 1100.52C894.24 1100.88 894.24 1101.24 894.24 1101.6ZM723.06 1109.7C719.82 1110.78 718.2 1111.68 718.2 1112.4C718.2 1112.76 718.2 1113.12 718.2 1113.48C720.18 1112.94 722.16 1112.4 724.14 1111.86C726.12 1111.32 728.1 1110.78 730.08 1110.24C729.72 1109.88 729.36 1109.52 729 1109.16C728.28 1108.44 726.3 1108.62 723.06 1109.7ZM676.62 1119.96C655.38 1125.72 635.4 1132.02 616.68 1138.86C597.96 1145.7 577.62 1154.7 555.66 1165.86C533.7 1177.02 521.1 1184.04 517.86 1186.92C516.24 1188.36 514.62 1189.8 513 1191.24C524.7 1185.3 536.4 1179.36 548.1 1173.42C571.5 1161.54 594.18 1151.64 616.14 1143.72C638.1 1135.8 655.92 1130.04 669.6 1126.44C683.28 1122.84 693.72 1119.6 700.92 1116.72C704.52 1115.28 708.12 1113.84 711.72 1112.4C711.18 1112.22 710.64 1112.04 710.1 1111.86C709.02 1111.5 697.86 1114.2 676.62 1119.96ZM925.56 1126.44C938.52 1136.52 949.32 1143.9 957.96 1148.58C966.6 1153.26 971.64 1155.6 973.08 1155.6C974.52 1155.6 979.74 1157.76 988.74 1162.08C997.74 1166.4 1016.64 1173.06 1045.44 1182.06C1074.24 1191.06 1094.76 1196.1 1107 1197.18C1113.12 1197.72 1119.24 1198.26 1125.36 1198.8C1125.36 1198.44 1125.36 1198.08 1125.36 1197.72C1125.36 1197 1121.76 1196.46 1114.56 1196.1C1107.36 1195.74 1099.26 1194.48 1090.26 1192.32C1081.26 1190.16 1063.62 1184.76 1037.34 1176.12C1011.06 1167.48 990.18 1159.56 974.7 1152.36C959.22 1145.16 947.16 1138.68 938.52 1132.92C929.88 1127.16 923.94 1122.66 920.7 1119.42C917.46 1116.18 914.22 1114.02 910.98 1112.94C909.36 1112.4 907.74 1111.86 906.12 1111.32C912.6 1116.36 919.08 1121.4 925.56 1126.44ZM859.14 1189.62C863.82 1210.86 869.58 1231.92 876.42 1252.8C883.26 1273.68 893.16 1298.16 906.12 1326.24C919.08 1354.32 927.54 1371.06 931.5 1376.46C933.48 1379.16 935.46 1381.86 937.44 1384.56C933.3 1376.46 929.16 1368.36 925.02 1360.26C916.74 1344.06 908.28 1325.88 899.64 1305.72C891 1285.56 884.16 1267.92 879.12 1252.8C874.08 1237.68 869.58 1222.2 865.62 1206.36C861.66 1190.52 859.68 1181.16 859.68 1178.28C859.68 1175.4 858.42 1171.26 855.9 1165.86C854.64 1163.16 853.38 1160.46 852.12 1157.76C854.46 1168.38 856.8 1179 859.14 1189.62ZM753.84 1188C743.04 1206.72 732.06 1228.5 720.9 1253.34C709.74 1278.18 701.82 1298.7 697.14 1314.9C692.46 1331.1 689.4 1346.04 687.96 1359.72C687.24 1366.56 686.52 1373.4 685.8 1380.24C686.16 1380.24 686.52 1380.24 686.88 1380.24C687.6 1380.24 689.4 1370.88 692.28 1352.16C695.16 1333.44 698.76 1317.6 703.08 1304.64C707.4 1291.68 714.78 1273.86 725.22 1251.18C735.66 1228.5 745.2 1209.78 753.84 1195.02C762.48 1180.26 767.34 1170.72 768.42 1166.4C768.96 1164.24 769.5 1162.08 770.04 1159.92C764.64 1169.28 759.24 1178.64 753.84 1188ZM576.72 1327.32C567 1334.52 557.28 1341.72 547.56 1348.92C553.14 1345.5 558.72 1342.08 564.3 1338.66C575.46 1331.82 585.36 1324.98 594 1318.14C602.64 1311.3 606.78 1307.52 606.42 1306.8C606.24 1306.44 606.06 1306.08 605.88 1305.72C596.16 1312.92 586.44 1320.12 576.72 1327.32ZM999.4 1496.04C1000.3 1496.94 1001.2 1497.84 1002.1 1498.74C1003.9 1500.54 1004.98 1502.88 1005.34 1505.76C1005.52 1507.2 1005.7 1508.64 1005.88 1510.08C1005.34 1509.9 1004.8 1509.72 1004.26 1509.54C1003.72 1509.36 1003.18 1509.18 1002.64 1509C1002.82 1509.54 1003 1510.08 1003.18 1510.62C1003.36 1511.16 1003.54 1511.7 1003.72 1512.24C1002.64 1512.24 1001.56 1512.24 1000.48 1512.24C998.32 1512.24 996.88 1511.7 996.16 1510.62C995.44 1509.54 995.62 1508.46 996.7 1507.38C997.78 1506.3 997.96 1505.04 997.24 1503.6C996.88 1502.88 996.52 1502.16 996.16 1501.44C996.52 1501.44 996.88 1501.44 997.24 1501.44C997.96 1501.44 998.5 1500.54 998.86 1498.74C999.04 1497.84 999.22 1496.94 999.4 1496.04ZM842.4 1547.64C843.12 1547.82 843.84 1548 844.56 1548.18C846 1548.54 848.16 1551.96 851.04 1558.44C853.92 1564.92 858.06 1571.22 863.46 1577.34C866.16 1580.4 868.86 1583.46 871.56 1586.52C870.48 1586.16 869.4 1585.8 868.32 1585.44C866.16 1584.72 863.28 1582.2 859.68 1577.88C856.08 1573.56 852.3 1567.44 848.34 1559.52C846.36 1555.56 844.38 1551.6 842.4 1547.64Z" fill="#84e2c2" fill-rule="evenodd" opacity="1" stroke="none"/>
<path d="M1005 1495" fill="#84e2c2" fill-rule="evenodd" opacity="1" stroke="none"/>
<path d="M1004.73 1505.73C1005.36 1506.82 1006.59 1507.74 1006.64 1509C1006.79 1513.6 1002.1 1518.08 997.636 1517.73C996.339 1517.62 994.838 1517.72 993.818 1516.91C992.038 1515.5 991.048 1513.3 989.727 1511.45C987.104 1507.78 984.567 1504.05 982.091 1500.27C981.33 1499.11 980.604 1497.93 979.909 1496.73C979.604 1496.2 979.429 1494.58 979.091 1495.09C978.082 1496.6 981.159 1500.48 982.364 1502.18C985.114 1506.08 988.549 1511.03 992.455 1513.91C994.41 1515.35 995.323 1515.07 995.727 1512.55C995.971 1511.02 995.975 1509.43 995.727 1507.91C995.423 1506.04 994.767 1504.23 994.091 1502.45C993.309 1500.4 992.308 1498.44 991.364 1496.45C989.528 1492.6 987.133 1488.99 985.636 1485" fill="#84e2c2" fill-rule="evenodd" opacity="1" stroke="none"/>
<path d="M1014.55 1506C1014.55 1500.45 1007.27 1494.55 1003.64 1491C996.229 1483.76 987.11 1476.58 977.182 1473.27" fill="#84e2c2" fill-rule="evenodd" opacity="1" stroke="none"/>
<path d="M1005.27 1498.91C1010.27 1495.58 1008.89 1490.83 1003.09 1488.55C998.854 1486.87 990.638 1485.74 987.273 1489.91C985.028 1492.69 985.379 1498.8 985.636 1501.64C986.204 1507.88 987.395 1511.72 990 1517.45C990.658 1518.9 991.511 1520.27 992.455 1521.55C992.8 1522.01 993.645 1523.19 993.818 1522.64C995.038 1518.73 993.272 1514.42 993.818 1510.36C994.49 1505.38 996.059 1500.47 998.182 1495.91C999.699 1492.65 1002.11 1489.51 1003.36 1490.45C1004.28 1491.14 1004.33 1492.58 1004.45 1493.73C1004.7 1495.9 1004.45 1498.09 1004.45 1500.27C1004.45 1502.45 1004.45 1504.64 1004.45 1506.82C1004.45 1515 1003.95 1524.34 1001.18 1532.18C1000.26 1534.8 997.836 1536.69 996.545 1539.27" fill="#84e2c2" fill-rule="evenodd" opacity="1" stroke="none"/>
<path d="M1004.45 1500.82C1000.84 1503.98 997.563 1507.64 993.818 1510.64C991.431 1512.55 991.008 1511.94 988.636 1513.64C985.561 1515.83 983.717 1520.47 982.091 1523.73" fill="#84e2c2" fill-rule="evenodd" opacity="1" stroke="none"/>
<path d="M1001.18 1497C1001.61 1500.84 1003.94 1504.26 1005.82 1507.64C1010.58 1516.21 1013.41 1521.52 1019.45 1529.18C1021.01 1531.15 1022.13 1534.64 1024.64 1534.64C1026.91 1534.64 1021.93 1530.99 1020.55 1529.18C1018.38 1526.35 1016.05 1523.65 1014 1520.73C1009.9 1514.89 1005.93 1508.96 1002 1503C1000.97 1501.44 1000.14 1499.75 999.273 1498.09C998.953 1497.48 997.776 1496.32 998.455 1496.18C999.696 1495.93 1000.83 1497.06 1002 1497.55C1004.18 1498.45 1006.31 1499.5 1008.55 1500.27C1009.44 1500.58 1011.79 1501.89 1011.27 1501.09C1009.48 1498.34 1006.95 1496.13 1004.45 1494C1000.11 1490.29 995.498 1486.91 990.818 1483.64C987.035 1480.99 983.169 1478.44 979.091 1476.27C977.135 1475.24 974.932 1474.75 972.818 1474.09C970.083 1473.24 971.182 1475.71 971.182 1477.64" fill="#84e2c2" fill-rule="evenodd" opacity="1" stroke="none"/>
<path d="M1005.55 1500.55C998.545 1500.55 991.545 1500.55 984.545 1500.55C982.712 1500.55 979.347 1500.44 977.455 1500.82C976.242 1501.06 975.061 1501.46 973.909 1501.91C972.857 1502.32 969.053 1504.37 969 1504.64C968.875 1505.26 970.277 1504.71 970.909 1504.64C972.736 1504.43 974.531 1503.96 976.364 1503.82C979.084 1503.6 981.817 1503.59 984.545 1503.55C995.473 1503.38 1004.38 1504.6 1014.27 1509.55C1018.58 1511.7 1022.58 1514.45 1026.55 1517.18C1027.67 1517.95 1028.71 1518.84 1029.82 1519.64C1030.35 1520.02 1032.09 1520.89 1031.45 1520.73C1028.1 1519.89 1025.72 1516.85 1023 1514.73C1020.39 1512.69 1017.82 1510.6 1015.09 1508.73C1008.66 1504.31 1002.05 1500.15 995.182 1496.45C990.556 1493.96 986.502 1492.48 981.818 1490.45C980.251 1489.78 978.623 1489.19 977.182 1488.27C976.691 1487.96 975.558 1487.7 975.818 1487.18C976.149 1486.52 980.137 1486.55 980.455 1486.64C981.983 1487.06 983.416 1487.8 984.818 1488.55C987.876 1490.17 990.85 1491.95 993.818 1493.73C1005.4 1500.68 1016.25 1508.33 1027.09 1516.36C1031.75 1519.82 1033.23 1521.44 1038 1523.73C1038.78 1524.1 1040.22 1525.37 1040.45 1524.55C1040.76 1523.48 1039.33 1522.6 1038.55 1521.82C1036.95 1520.22 1035.07 1518.94 1033.36 1517.45C1030.79 1515.21 1028.38 1512.78 1025.73 1510.64C1013.35 1500.66 999.58 1492.78 985.636 1485.27C982.955 1483.83 978.286 1481.16 975.273 1479.82C972.689 1478.67 970.51 1478.41 970.636 1477.91C970.792 1477.29 971.938 1477.43 972.545 1477.64C974.659 1478.37 976.596 1479.54 978.545 1480.64C981.781 1482.45 984.962 1484.37 988.091 1486.36C999.901 1493.89 1010.83 1502.38 1021.91 1510.91C1023.61 1512.22 1025.45 1513.35 1027.09 1514.73C1027.73 1515.27 1029.42 1517.1 1028.73 1516.64C1024.16 1513.59 1020.3 1509.58 1015.91 1506.27C1007.53 1499.95 998.915 1493.55 990 1488C987.961 1486.73 985.813 1485.65 983.727 1484.45C982.06 1483.5 979.455 1481.64 978.818 1482.27C977.339 1483.75 980.102 1487.54 980.455 1488C981.932 1489.95 983.769 1491.6 985.364 1493.45C989.835 1498.65 994.403 1503.82 998.182 1509.55C999.549 1511.62 1000.54 1513.91 1001.73 1516.09C1002.18 1516.91 1002.43 1519.21 1003.09 1518.55C1003.82 1517.81 1002.54 1516.55 1002.27 1515.55C1001.91 1514.18 1001.67 1512.78 1001.18 1511.45C997.883 1502.5 992.559 1495.06 987.818 1486.91C986.653 1484.91 985.723 1482.77 984.818 1480.64C984.448 1479.76 983.395 1477.18 984 1477.91C988.472 1483.32 992.569 1489.03 996.545 1494.82C1001.39 1501.86 1001.58 1510.92 1001.73 1519.09C1001.79 1522.73 1002.09 1526.42 1001.45 1530C1001.27 1531.05 1000.82 1532.04 1000.36 1533C1000.08 1533.59 999.445 1535.27 999.273 1534.64C998.141 1530.48 1001.29 1526.61 1003.09 1523.45C1004.86 1520.34 1006.82 1517.32 1008.55 1514.18C1013.3 1505.53 1017.75 1496.68 1022.45 1488C1023.52 1486.03 1024.52 1484.03 1025.45 1482C1026.4 1479.93 1028.24 1477.55 1027.36 1475.45C1026.64 1473.72 1023.19 1475.25 1022.73 1475.45C1020.65 1476.4 1018.64 1477.49 1016.73 1478.73C1014.27 1480.32 1011.96 1482.13 1009.64 1483.91C998.44 1492.51 990.184 1504.55 978.273 1512.27C976.738 1513.27 975 1513.91 973.364 1514.73C972.091 1515.36 970.818 1516 969.545 1516.64C969 1516.91 968.34 1517.89 967.909 1517.45C967.497 1517.04 968.53 1516.43 969 1516.09C970.914 1514.69 972.964 1513.49 975 1512.27C980.734 1508.85 986.738 1505.9 992.455 1502.45C1000.25 1497.75 1007.56 1492.25 1015.64 1488C1017.15 1487.2 1018.65 1486.36 1020.27 1485.82C1021.14 1485.53 1022.51 1484.78 1023 1485.55C1023.74 1486.7 1023.23 1488.37 1022.73 1489.64C1022.1 1491.21 1020.61 1492.29 1019.73 1493.73C1016.8 1498.48 1014.22 1503.44 1011.27 1508.18C1005.33 1517.72 998.601 1528.53 990 1536C985.154 1540.21 979.726 1543.7 974.727 1547.73" fill="#84e2c2" fill-rule="evenodd" opacity="1" stroke="none"/>
<path d="M993.818 1503C998.397 1500.97 1001.51 1496.86 1005.82 1494.27C1012.14 1490.48 1019.75 1487.75 1027.09 1487.18" fill="#84e2c2" fill-rule="evenodd" opacity="1" stroke="none"/>
<path d="M993 1502.45C1000.79 1498.26 1009.02 1496.65 1017.82 1496.45C1019.73 1496.41 1021.64 1496.45 1023.55 1496.45C1024.64 1496.45 1025.86 1496.97 1026.82 1496.45C1027.38 1496.15 1027.51 1495.04 1027.09 1494.55C1025.34 1492.48 1022.88 1491.13 1020.82 1489.36C1016.51 1485.67 1012.38 1481.79 1008 1478.18C999.514 1471.19 990.697 1464.27 980.727 1459.64C978.485 1458.59 976.052 1457.98 973.636 1457.45C973.096 1457.34 971.978 1457.17 972 1457.73C972.311 1465.5 979.086 1471.66 983.727 1477.91C992.189 1489.29 1001.08 1500.39 1008.82 1512.27C1011.28 1516.06 1013.53 1520 1015.64 1524C1016.17 1525.02 1017.83 1527.6 1016.73 1527.27C1014.37 1526.58 1012.78 1524.33 1011 1522.64C1007.23 1519.05 1003.63 1515.28 1000.09 1511.45C995.806 1506.82 991.614 1502.1 987.545 1497.27C983.793 1492.82 980.322 1488.14 976.636 1483.64C974.595 1481.14 967.525 1474.74 970.364 1476.27C975.478 1479.03 979.379 1483.6 983.727 1487.45C988.928 1492.06 993.977 1496.84 999 1501.64C1008.34 1510.56 1017.41 1519.78 1026.55 1528.91C1027.18 1529.55 1025.29 1527.62 1024.64 1527C1023.65 1526.07 1022.59 1525.23 1021.64 1524.27C1018.59 1521.23 1015.66 1518.07 1012.64 1515C1005.73 1508 998.908 1500.9 991.636 1494.27C990.009 1492.79 984.71 1488.84 986.455 1490.18C992.996 1495.21 999.316 1500.56 1005.27 1506.27C1008.61 1509.48 1011.82 1512.82 1015.09 1516.09C1017.27 1518.27 1021.64 1519.55 1021.64 1522.64C1021.64 1525.16 1017.08 1520.38 1015.09 1518.82C1011.5 1515.99 1008.35 1512.65 1005 1509.55C996.931 1502.07 988.986 1494.47 981 1486.91C978.198 1484.26 975.398 1481.6 972.545 1479C971.306 1477.87 969.257 1477.32 968.727 1475.73C968.399 1474.74 970.8 1476.08 971.727 1476.55C973.193 1477.28 974.501 1478.3 975.818 1479.27C977.895 1480.81 979.572 1482.96 980.727 1485.27" fill="#84e2c2" fill-rule="evenodd" opacity="1" stroke="none"/>
<path d="M1023 1484.73C1017.2 1488.59 1012.25 1493.43 1006.64 1497.55C1000.28 1502.2 993.694 1506.67 988.091 1512.27C985.106 1515.26 982.618 1518.41 980.182 1521.82C979.843 1522.29 978.768 1522.7 979.091 1523.18C979.242 1523.41 981.025 1522.69 983.727 1520.73C984.772 1519.97 985.755 1519.12 986.727 1518.27C992.983 1512.8 997.45 1505.99 1003.36 1500.27C1004.32 1499.35 1008.36 1496.07 1010.18 1495.36C1010.86 1495.1 1011.63 1495.14 1012.36 1495.09C1013 1495.05 1014.46 1494.48 1014.27 1495.09C1013.72 1496.88 1009.01 1500.57 1007.73 1501.64C1006.19 1502.92 1004.61 1504.15 1003.09 1505.45C997.743 1510.06 992.931 1515.12 987.273 1519.36C985.396 1520.77 983.498 1522.15 981.545 1523.45C980.936 1523.86 980.282 1524.2 979.636 1524.55C979.099 1524.83 977.832 1525.95 978 1525.36C978.778 1522.64 981.757 1521.12 983.727 1519.09C987.395 1515.3 991.138 1511.59 994.909 1507.91C1001.48 1501.49 1008.25 1495.4 1015.64 1489.91C1023.02 1484.42 1032.69 1478.79 1036.09 1469.73" fill="#84e2c2" fill-rule="evenodd" opacity="1" stroke="none"/>
<path d="M997.909 1513.64C999.013 1513.64 1001.92 1513.9 1002.82 1512.82C1004.59 1510.69 1004.9 1505.96 1005 1503.55C1005.11 1500.82 1005.25 1498.08 1005 1495.36C1003.54 1479.75 994.256 1468.34 985.909 1455.82C982.852 1451.23 983.668 1448.18 977.727 1448.18" fill="#84e2c2" fill-rule="evenodd" opacity="1" stroke="none"/>
<path d="M98.5197 599.405L943 1515" fill="#84e2c2" fill-rule="evenodd" opacity="1" stroke="none"/>
</g>
</svg>
